<svg viewBox="0 0 24 21" xmlns="http://www.w3.org/2000/svg">
<path d="M16 13.656V18C16 18.55 15.55 19 15 19H3C2.45 19 2 18.55 2 18V6C2 5.45 2.45 5 3 5H13.344L15.153 3.189C14.785 3.078 14.404 3 14 3H4C1.795 3 0 4.794 0 7V17C0 19.206 1.795 21 4 21H14C16.205 21 18 19.206 18 17V11.657L16 13.656Z"/>
<path d="M23.717 2.451L21.549 0.281999C21.35 0.0839991 21.025 0.0839991 20.824 0.281999L19.379 1.728L22.272 4.621L23.717 3.176C23.916 2.976 23.916 2.65 23.717 2.451Z"/>
<path d="M11.333 15.459L8.54102 12.626L6.90902 16.798C6.80802 17.061 6.93901 17.192 7.20301 17.091L11.333 15.459Z"/>
<path d="M21.3993 5.49374L18.5066 2.601L9.40692 11.7007L12.2997 14.5934L21.3993 5.49374Z"/>
</svg>
