<svg viewBox="0 0 26 26" fill="none" xmlns="http://www.w3.org/2000/svg">
<rect width="26" height="26" rx="13" fill="black"/>
<path d="M12.9995 26C20.1792 26 26 20.1792 26 12.9995C26 5.81973 20.1803 0 12.9995 0C5.81867 0 0 5.8208 0 13.0005C0 20.1803 5.81973 26 12.9995 26ZM11.4667 19.4667C11.1733 19.4667 10.9333 19.2267 10.9333 18.9333V13.0667H7.16587C6.87253 13.0667 6.78827 12.8853 6.98027 12.6624L12.7189 6.00427C12.9109 5.78133 13.2235 5.7824 13.4133 6.00533L19.12 12.6613C19.3099 12.8843 19.2267 13.0667 18.9333 13.0667H15.2V18.9333C15.2 19.2267 14.96 19.4667 14.6667 19.4667H11.4667Z" fill="white"/>
</svg>
