<?xml version="1.0" encoding="utf-8"?>
<!-- Generator: Adobe Illustrator 24.1.2, SVG Export Plug-In . SVG Version: 6.00 Build 0)  -->
<svg version="1.1" id="Layer_2_1_" xmlns="http://www.w3.org/2000/svg" xmlns:xlink="http://www.w3.org/1999/xlink" x="0px" y="0px"
	 viewBox="0 0 19 19" style="enable-background:new 0 0 19 19;" xml:space="preserve">
<g id="Path_2068_1_">
	<path id="fill" class="st0" d="M9.6,1.2C5.1,1.3,1.6,5,1.6,9.4c0,1.1,0.3,2.2,0.7,3.2l-1.1,4.2c-0.1,0.4,0.1,0.8,0.6,0.9
		c0.1,0,0.3,0,0.4,0l4.2-1.1c1,0.4,2.2,0.6,3.4,0.6c4.3-0.1,7.8-3.6,7.9-8c0-4.4-3.5-8-8-8.1C9.6,1.2,9.6,1.2,9.6,1.2z"/>
	<path id="stroke" class="st1" d="M2.3,18.8l-0.7,0c-0.5-0.1-0.9-0.4-1.1-0.8c-0.3-0.4-0.3-0.9-0.2-1.4l1-3.9
		c-0.4-1.1-0.7-2.2-0.7-3.3c0-5,4-9.1,8.9-9.2h0.2c5.1,0.1,9,4.1,9,9.1c-0.1,5-4,8.9-8.9,9h0c-1.4,0-2.6-0.3-3.5-0.6L2.3,18.8z
		 M9.6,2.2C5.7,2.3,2.6,5.5,2.6,9.4c0,0.9,0.2,1.9,0.6,2.8l0.1,0.3l-1.1,4.2l4.1-1.1l0.3,0.1c0.7,0.3,1.9,0.6,3.1,0.6
		c3.8-0.1,6.8-3.2,6.9-7c0-3.9-3.1-7-7-7.1H9.6z"/>
</g>
</svg>
