<?xml version="1.0" encoding="utf-8"?>
<!-- Generator: Adobe Illustrator 24.1.0, SVG Export Plug-In . SVG Version: 6.00 Build 0)  -->
<svg version="1.1" id="Layer_1" xmlns="http://www.w3.org/2000/svg" xmlns:xlink="http://www.w3.org/1999/xlink" x="0px" y="0px"
	 viewBox="0 0 16 4" style="enable-background:new 0 0 16 4;" xml:space="preserve">
<style type="text/css">
	.st0{fill-rule:evenodd;clip-rule:evenodd;}
</style>
<path id="Path_2038" class="st0" d="M4,2c0-1.1-0.9-2-2-2S0,0.9,0,2s0.9,2,2,2C3.1,4,4,3.1,4,2z M10,2c0-1.1-0.9-2-2-2S6,0.9,6,2
	s0.9,2,2,2C9.1,4,10,3.1,10,2z M12,2c0,1.1,0.9,2,2,2s2-0.9,2-2s-0.9-2-2-2C12.9,0,12,0.9,12,2z"/>
</svg>
