<svg xmlns="http://www.w3.org/2000/svg" width="22" height="21.999" viewBox="0 0 22 21.999">
  <g id="Layer_2" data-name="Layer 2" transform="translate(-1 -1.004)">
    <g id="Layer_1" data-name="Layer 1" transform="translate(1 1.004)">
      <rect id="Rectangle_898" data-name="Rectangle 898" width="11.709" height="3.647" transform="translate(8.376 11.045) rotate(-45)" />
      <path id="Path_2091" data-name="Path 2091" d="M177.289,4.566,174.71,1.987l1.531-1.53a1.548,1.548,0,0,1,2.188,0l.391.391a1.548,1.548,0,0,1,0,2.188Z" transform="translate(-157.273 -0.004)" />
      <path id="Path_2092" data-name="Path 2092" d="M62.72,122.4l1.335-3.914,2.579,2.579Z" transform="translate(-56.46 -106.664)" />
      <path id="Path_2093" data-name="Path 2093" d="M17.11,33.77V44.109H2.2V29.2H12.534l2.1-2.2H1a1,1,0,0,0-1,1V45.307a1,1,0,0,0,1,1h17.31a1,1,0,0,0,1-1V31.673Z" transform="translate(0 -24.306)" />
    </g>
  </g>
</svg>
