<svg xmlns="http://www.w3.org/2000/svg" viewBox="0 0 60.68 10"><title>fanexus logo</title><g id="Layer_2" data-name="Layer 2"><g id="Layer_1-2" data-name="Layer 1"><path d="M3.45,6.93a.09.09,0,0,0-.06-.09,2,2,0,0,1,0-3.8.11.11,0,0,0,.06-.1V.1A.09.09,0,0,0,3.35,0a.09.09,0,0,0-.08,0L0,4.82a.08.08,0,0,0,0,.11L3.27,9.81a.11.11,0,0,0,.14,0,.09.09,0,0,0,0-.08Z"/><path d="M11.37,1.62V.1a.09.09,0,0,0-.1-.1H5a.1.1,0,0,0-.1.1V3A.11.11,0,0,0,4.94,3,2,2,0,0,1,6,5.72a2,2,0,0,1-1.1,1.1.11.11,0,0,0-.06.09V9.76a.09.09,0,0,0,.1.1H7.43c.05,0,.09,0,.09-.09h0V5.89a.1.1,0,0,1,.1-.1h3.07a.11.11,0,0,0,.1-.1V4.18a.1.1,0,0,0-.1-.1H7.62A.1.1,0,0,1,7.53,4V1.81a.1.1,0,0,1,.09-.1h3.65a.09.09,0,0,0,.1-.09Z"/><path d="M3.3,4.93A.86.86,0,0,1,5,4.93a.86.86,0,1,1-1.71,0Z"/><path d="M60.68,7.63a2.21,2.21,0,0,0-.19-1A2,2,0,0,0,59.88,6a6,6,0,0,0-1.29-.67,8.86,8.86,0,0,1-1.29-.6A.58.58,0,0,1,57,4.2c0-.33.3-.49.91-.49a3.41,3.41,0,0,1,1,.15c.33.11.68.24,1.06.4l.62-1.48A6.38,6.38,0,0,0,58,2.18a3.86,3.86,0,0,0-2.21.55A1.8,1.8,0,0,0,55,4.29a2.43,2.43,0,0,0,.19,1,2,2,0,0,0,.59.71A6.3,6.3,0,0,0,57,6.66a10.66,10.66,0,0,1,1,.45,2.1,2.1,0,0,1,.51.34.5.5,0,0,1,.15.4c0,.43-.37.65-1.12.65a4.93,4.93,0,0,1-1.26-.19A7,7,0,0,1,55,7.86v1.7a5.92,5.92,0,0,0,1.08.33,8.07,8.07,0,0,0,1.41.11,4,4,0,0,0,2.41-.61A2.08,2.08,0,0,0,60.68,7.63ZM53.26,9.86V2.32h-2V5.87a3.52,3.52,0,0,1-.39,1.91,1.36,1.36,0,0,1-1.24.58A1.07,1.07,0,0,1,48.65,8a2.13,2.13,0,0,1-.29-1.22V2.33H46.3V7.24a2.88,2.88,0,0,0,.68,2A2.65,2.65,0,0,0,49,10a3.11,3.11,0,0,0,1.38-.29,2.06,2.06,0,0,0,.94-.81h.11l.28,1Zm-15.91,0h2.33l1.59-2.58,1.59,2.58H45.2L42.63,6l2.45-3.68H42.75l-1.48,2.4-1.46-2.4H37.48L39.9,6Zm-3.6.14a7,7,0,0,0,1.49-.13,5.31,5.31,0,0,0,1.16-.4V7.88a7.48,7.48,0,0,1-1.27.45,6.14,6.14,0,0,1-1.29.14A1.81,1.81,0,0,1,32.48,8,2,2,0,0,1,32,6.61h4.86v-1a3.39,3.39,0,0,0-.89-2.51,3.31,3.31,0,0,0-2.49-.92,3.4,3.4,0,0,0-2.62,1,4.2,4.2,0,0,0-.94,2.93A3.82,3.82,0,0,0,30.9,9a3.9,3.9,0,0,0,2.85,1Zm-.29-6.35a1.35,1.35,0,0,1,1,.41,1.71,1.71,0,0,1,.39,1.18H32a1.94,1.94,0,0,1,.42-1.18A1.3,1.3,0,0,1,33.46,3.65ZM28.22,5a2.89,2.89,0,0,0-.68-2.06,2.67,2.67,0,0,0-2-.71,3.32,3.32,0,0,0-1.37.28,2.25,2.25,0,0,0-1,.83h-.11l-.28-1H21.26V9.86h2.06V6.32a3.53,3.53,0,0,1,.38-1.91A1.38,1.38,0,0,1,25,3.83a1,1,0,0,1,.92.41,2.13,2.13,0,0,1,.29,1.22v4.4h2.06ZM17.1,7a1.41,1.41,0,0,1-.43,1.09,1.57,1.57,0,0,1-1.14.42c-.67,0-1-.29-1-.87A1,1,0,0,1,15,6.72,2.52,2.52,0,0,1,16.3,6.4l.8,0Zm2,2.87v-5a2.44,2.44,0,0,0-.81-2A3.58,3.58,0,0,0,16,2.17a6.19,6.19,0,0,0-2.89.68l.68,1.39a5.41,5.41,0,0,1,2.13-.55A1,1,0,0,1,17.1,4.84v.33l-1.31,0a4.85,4.85,0,0,0-2.53.63,2,2,0,0,0-.84,1.77A2.4,2.4,0,0,0,13,9.38a2.35,2.35,0,0,0,1.71.62,3.56,3.56,0,0,0,1.43-.25,3,3,0,0,0,1.07-.91h.06l.4,1Z"/></g></g></svg>