<svg viewBox="0 0 28 24" xmlns="http://www.w3.org/2000/svg">
<path d="M23 21.148C23 21.578 23 23.5 23 23.5C23 23.775 22.775 24 22.5 24H0.5C0.225 24 0 23.775 0 23.5C0 23.5 0 21.578 0 21.148C0 20.095 0.199 19.663 1 19.208C1.644 18.842 5.968 16.357 8 15.484V11.717C7.376 11.263 7 10.559 7 9.484C7 6.984 7 6.5 7 6.5C7 4.025 8.5 2 11.5 2C14.5 2 16 4.025 16 6.5V9.484C16 10.548 15.624 11.251 15 11.707V15.484C17.157 16.357 21.356 18.841 22 19.208C22.801 19.663 23 20.096 23 21.148ZM28 5C28 7.762 25.762 10 23 10C20.239 10 18 8.206 18 5C18 2.016 20.239 0 23 0C25.762 0 28 2.238 28 5ZM26 4.5C26 4.225 25.775 4 25.5 4H24V2.5C24 2.225 23.775 2 23.5 2H22.5C22.225 2 22 2.225 22 2.5V4H20.5C20.225 4 20 4.225 20 4.5V5.5C20 5.775 20.225 6 20.5 6H22V7.5C22 7.775 22.225 8 22.5 8H23.5C23.775 8 24 7.775 24 7.5V6H25.5C25.775 6 26 5.775 26 5.5V4.5Z"/>
</svg>
