<svg xmlns="http://www.w3.org/2000/svg" width="16" height="15" viewBox="0 0 16 15"><g><g opacity="-.9"><g opacity=".9"><path fill="#fff" d="M14.597 5.894H1.403C.63 5.894 0 6.524 0 7.298v.008c0 .774.63 1.403 1.403 1.403h13.194c.774 0 1.403-.63 1.403-1.403v-.008c0-.774-.63-1.404-1.403-1.404z"/></g><g opacity=".9"><path fill="#fff" d="M15.531 10.912h-.762a2.677 2.677 0 0 0-.09-.2c-.45-.9-1.341-1.395-2.51-1.395-.142 0-.272 0-.398.002-.996.015-1.588.1-2.043.293-.186.079-.353.179-.496.297-.214.177-.378.4-.489.66-.05.121-.09.228-.118.343H7.376a2.24 2.24 0 0 0-.12-.342 1.719 1.719 0 0 0-.488-.66 2.006 2.006 0 0 0-.496-.298c-.455-.193-1.047-.278-2.043-.293a27.13 27.13 0 0 0-.398-.002c-1.168 0-2.06.495-2.51 1.395a2.647 2.647 0 0 0-.09.2H.47a.469.469 0 1 0 0 .938h.551c-.008.1-.012.204-.012.308C1.008 13.725 2.275 15 3.831 15c.95 0 1.867-.423 2.58-1.19.26-.28.477-.587.646-.915.094-.183.172-.37.23-.555a3.04 3.04 0 0 0 .113-.49h1.2c.023.161.06.326.113.49.058.186.136.373.23.555a4.1 4.1 0 0 0 .645.914c.714.768 1.63 1.191 2.581 1.191 1.556 0 2.823-1.275 2.823-2.842 0-.104-.004-.208-.012-.308h.551a.469.469 0 1 0 0-.938z"/></g><g opacity=".9"><path fill="#fff" d="M12.953.862a1.197 1.197 0 0 0-1.625-.763l-2.241.977c-.69.3-1.483.3-2.174 0L4.672.099a1.194 1.194 0 0 0-1.625.763l-.804 2.77 11.538.043z"/></g><g opacity=".9"><path fill="#fff" d="M13.746 3.576H2.254l-.403 2.381h12.298z"/></g></g></g></svg>