<?xml version="1.0" encoding="utf-8"?>
<!-- Generator: Adobe Illustrator 24.1.2, SVG Export Plug-In . SVG Version: 6.00 Build 0)  -->
<svg version="1.1" id="like" xmlns="http://www.w3.org/2000/svg" xmlns:xlink="http://www.w3.org/1999/xlink" x="0px" y="0px"
	 viewBox="0 0 20.1 17.6" style="enable-background:new 0 0 20.1 17.6;" xml:space="preserve">
<style type="text/css">

</style>
<g>
	<path id="fill" class="st0" d="M18.8,6.3c0,1.6-0.7,3.1-1.7,4.2c-1.3,1.5-2.8,2.8-4.4,4c-0.6,0.5-1.3,1.1-2,1.7
		c-0.4,0.3-1,0.3-1.4,0c-0.7-0.6-1.4-1.2-2-1.7c-1.6-1.2-3-2.6-4.4-4C1.9,9.4,1.3,7.9,1.3,6.3c0-1.4,0.5-2.7,1.4-3.7
		c0.9-1,2.2-1.5,3.5-1.5c1,0,2,0.3,2.8,0.9C9.4,2.4,9.7,2.8,10,3.2c0.3-0.4,0.7-0.8,1.1-1.1c0.8-0.6,1.8-0.9,2.8-0.9
		c1.3,0,2.6,0.5,3.5,1.5C18.4,3.6,18.9,4.9,18.8,6.3z"/>
	<path id="stroke" class="st1" d="M10,17.5c-0.5,0-0.9-0.2-1.3-0.5c-0.6-0.5-1.1-1-1.6-1.4l-0.4-0.3c-1.5-1.2-3-2.6-4.5-4.1
		c-1.2-1.3-1.9-3-2-4.8C0.3,4.7,0.9,3.1,2,2C3,0.8,4.6,0.1,6.2,0.2c1.2,0,2.4,0.4,3.3,1.1C9.7,1.4,9.9,1.6,10,1.7
		c0.2-0.2,0.3-0.3,0.5-0.5c0.9-0.7,2.1-1.1,3.4-1.1c0,0,0,0,0,0c1.6,0,3.1,0.7,4.2,1.8c1.1,1.2,1.7,2.7,1.7,4.4v0
		c-0.1,1.8-0.8,3.5-2,4.9c-1.4,1.5-2.9,2.9-4.5,4.1L13,15.6c-0.5,0.4-1.1,0.9-1.6,1.4C11,17.3,10.5,17.5,10,17.5z M6.1,2.1
		c-1.1,0-2.1,0.4-2.8,1.2c-0.8,0.8-1.2,1.9-1.1,3c0,1.3,0.6,2.6,1.5,3.6C5,11.3,6.5,12.6,8,13.8l0.4,0.3c0.5,0.4,1.1,0.9,1.7,1.4
		c0.7-0.5,1.2-1,1.8-1.4l0.4-0.3c1.5-1.2,2.9-2.5,4.3-3.9c0.9-1,1.4-2.2,1.5-3.6c0-1.1-0.4-2.2-1.1-3C16,2.5,15,2.1,13.9,2.1
		c-0.8,0-1.6,0.3-2.2,0.7c-0.3,0.3-0.7,0.6-0.9,1L10,4.8L9.3,3.8C9,3.4,8.7,3.1,8.3,2.8C7.7,2.3,6.9,2.1,6.1,2.1
		C6.2,2.1,6.1,2.1,6.1,2.1z"/>
</g>
</svg>
