<svg id="Layer_2" data-name="Layer 2" xmlns="http://www.w3.org/2000/svg" width="15" height="11.699" viewBox="0 0 15 11.699">
  <g id="Layer_1" data-name="Layer 1">
    <path id="Path_2085" data-name="Path 2085" d="M75.572,45.229l-3.8,2.632a.233.233,0,0,1-.366-.192V45.816H65.644a.354.354,0,0,1-.354-.354v-.849a.354.354,0,0,1,.354-.354h5.763V42.406a.233.233,0,0,1,.366-.192l3.8,2.634a.233.233,0,0,1,0,.381Z" transform="translate(-60.671 -39.189)" />
    <path id="Path_2086" data-name="Path 2086" d="M1.91,1.556H7.745A.354.354,0,0,0,8.1,1.2V.354A.354.354,0,0,0,7.745,0H.707A.707.707,0,0,0,0,.707V10.991a.707.707,0,0,0,.707.707H7.745a.354.354,0,0,0,.354-.354V10.5a.354.354,0,0,0-.354-.354H1.91a.354.354,0,0,1-.354-.354V1.91A.354.354,0,0,1,1.91,1.556Z" />
  </g>
</svg>
