<svg viewBox="0 0 43 44" fill="none" xmlns="http://www.w3.org/2000/svg">
<path d="M26.6312 4.84247e-08C23.4999 -6.73511e-05 20.4342 0.898121 17.7979 2.588C15.1617 4.27787 13.0655 6.68851 11.7582 9.53389C10.4508 12.3793 9.9871 15.54 10.422 18.641C10.857 21.742 12.1723 24.6532 14.212 27.0291L0 41.2411L1.7803 43.0214L15.9948 28.8068C17.9996 30.5212 20.3889 31.7256 22.9594 32.3176C25.5299 32.9095 28.2054 32.8714 30.758 32.2066C33.3106 31.5417 35.6647 30.2697 37.6198 28.499C39.575 26.7283 41.0731 24.5113 41.9868 22.0368C42.9004 19.5623 43.2025 16.9037 42.8673 14.2873C42.532 11.6709 41.5694 9.17428 40.0613 7.01009C38.5533 4.84591 36.5445 3.07825 34.2062 1.85769C31.8677 0.63712 29.269 -0.000202837 26.6312 4.84247e-08ZM26.6312 2.51808C30.3043 2.51808 33.827 3.97721 36.4243 6.57449C39.0215 9.17176 40.4807 12.6944 40.4807 16.3675C40.4807 20.0406 39.0215 23.5633 36.4243 26.1606C33.827 28.7578 30.3043 30.217 26.6312 30.217C22.9581 30.217 19.4355 28.7578 16.8382 26.1606C14.2409 23.5633 12.7818 20.0406 12.7818 16.3675C12.7818 12.6944 14.2409 9.17176 16.8382 6.57449C19.4355 3.97721 22.9581 2.51808 26.6312 2.51808Z" fill="white"/>
</svg>
