<svg id="Layer_2" data-name="Layer 2" xmlns="http://www.w3.org/2000/svg" width="18.028" height="19" viewBox="0 0 18.028 19">
  <g id="Layer_1" data-name="Layer 1" transform="translate(0 0)">
    <path id="Path_2072" data-name="Path 2072" d="M1.87,11.156H0V3.361a.85.85,0,0,1,.85-.85H12.9V.283a.281.281,0,0,1,.44-.231l4.565,3.163a.281.281,0,0,1,0,.461L13.342,6.839a.281.281,0,0,1-.44-.23V4.381H2.3a.425.425,0,0,0-.425.425Z" transform="translate(0 -0.002)"/>
    <path id="Path_2073" data-name="Path 2073" d="M18.031,92.31V100.1a.85.85,0,0,1-.85.85H5.129v2.227a.281.281,0,0,1-.44.23L.124,100.25a.281.281,0,0,1,0-.462l4.565-3.162a.281.281,0,0,1,.44.23v2.228H15.736a.425.425,0,0,0,.425-.425V92.31Z" transform="translate(-0.003 -84.463)"/>
  </g>
</svg>
