<svg xmlns="http://www.w3.org/2000/svg" width="11px" viewBox="0 0 9.55 9.7"><defs><style>.cls-1{isolation:isolate;}</style></defs><g id="Layer_2" data-name="Layer 2"><g id="Layer_1-2" data-name="Layer 1"><g id="bold" class="cls-1"><g class="cls-1"><path class="cls-2" d="M8.57,5.25A2.54,2.54,0,0,1,9.28,6a2.11,2.11,0,0,1,.27,1.08,2.31,2.31,0,0,1-.31,1.24,2.25,2.25,0,0,1-.89.81,4.93,4.93,0,0,1-1.42.44A11.68,11.68,0,0,1,5,9.7H0V9.17l.53-.06A1.69,1.69,0,0,0,1,9a.67.67,0,0,0,.35-.27.91.91,0,0,0,.09-.43V1.47a1,1,0,0,0-.07-.41A.64.64,0,0,0,1,.77,2,2,0,0,0,.49.63L0,.53V0H5.27A5.6,5.6,0,0,1,8.14.55,1.77,1.77,0,0,1,9,2.16,1.79,1.79,0,0,1,8.83,3a2.08,2.08,0,0,1-.57.65,3.2,3.2,0,0,1-.8.44,8.41,8.41,0,0,1-1,.31v.13a5.23,5.23,0,0,1,1.11.23A4,4,0,0,1,8.57,5.25ZM6.36,2.33a1.7,1.7,0,0,0-.45-1.26A1.86,1.86,0,0,0,4.55.62H4.21l-.36,0v3.6H4.2a2.29,2.29,0,0,0,1.64-.52A1.88,1.88,0,0,0,6.36,2.33ZM6.84,7a2,2,0,0,0-.6-1.55,2.51,2.51,0,0,0-1.73-.55l-.34,0H3.85V8.48a.69.69,0,0,0,.38.42A1.61,1.61,0,0,0,5,9.08a1.71,1.71,0,0,0,1.32-.55A2.17,2.17,0,0,0,6.84,7Z"/></g></g></g></g></svg>