<svg xmlns="http://www.w3.org/2000/svg" width="18px" viewBox="0 0 16.27 9.7"><defs><style>.cls-1{isolation:isolate;}.cls-2{fill:#43217b;}</style></defs><g id="Layer_2" data-name="Layer 2"><g id="Layer_1-2" data-name="Layer 1"><g id="header_1" data-name="header 1" class="cls-1"><g class="cls-1"><path class="cls-2" d="M10,9.7H6V9.21l.47,0a1.16,1.16,0,0,0,.43-.08.58.58,0,0,0,.3-.25.89.89,0,0,0,.09-.43V5H2.75V8.33a1,1,0,0,0,.08.41A.72.72,0,0,0,3.14,9a1.75,1.75,0,0,0,.42.13A2.49,2.49,0,0,0,4,9.21V9.7H0V9.21l.48,0A1.09,1.09,0,0,0,.9,9.09a.54.54,0,0,0,.3-.25.78.78,0,0,0,.1-.43v-7A.87.87,0,0,0,1.21,1,.63.63,0,0,0,.9.72,2.8,2.8,0,0,0,.46.57,1.78,1.78,0,0,0,0,.49V0H4V.49a2.23,2.23,0,0,0-.47.06,2.92,2.92,0,0,0-.42.1.49.49,0,0,0-.31.27,1.16,1.16,0,0,0-.08.42v3H7.31V1.41A.87.87,0,0,0,7.23,1,.67.67,0,0,0,6.92.72,3,3,0,0,0,6.47.57,1.78,1.78,0,0,0,6,.49V0h4V.49a2.4,2.4,0,0,0-.47.06,2.72,2.72,0,0,0-.41.1.47.47,0,0,0-.31.27,1.16,1.16,0,0,0-.08.42v7a1,1,0,0,0,.08.41A.66.66,0,0,0,9.16,9a1.8,1.8,0,0,0,.41.13,2.59,2.59,0,0,0,.47.06Z"/><path class="cls-2" d="M16.27,9.7H11.66V9.21c.14,0,.35,0,.64-.05a3,3,0,0,0,.6-.1.58.58,0,0,0,.32-.22.72.72,0,0,0,.12-.46V3.58H11.63V3H12a3,3,0,0,0,1.32-.28,2.32,2.32,0,0,0,.84-.58h.57c0,.29,0,.64,0,1s0,.75,0,1.06V8.31a.84.84,0,0,0,.1.42.65.65,0,0,0,.31.28,2.56,2.56,0,0,0,.58.14,4.54,4.54,0,0,0,.6.06Z"/></g></g></g></g></svg>