<svg xmlns="http://www.w3.org/2000/svg" width="20px" viewBox="0 0 17.9 9.7"><defs><style>.cls-1{isolation:isolate;}.cls-2{fill:#43217b;}</style></defs><g id="Layer_2" data-name="Layer 2"><g id="Layer_1-2" data-name="Layer 1"><g id="header_2" data-name="header 2" class="cls-1"><g class="cls-1"><path class="cls-2" d="M10,9.7H6V9.21l.47,0a1.16,1.16,0,0,0,.43-.08.58.58,0,0,0,.3-.25.89.89,0,0,0,.09-.43V5H2.75V8.33a1,1,0,0,0,.08.41A.72.72,0,0,0,3.14,9a1.75,1.75,0,0,0,.42.13A2.49,2.49,0,0,0,4,9.21V9.7H0V9.21l.48,0A1.09,1.09,0,0,0,.9,9.09a.54.54,0,0,0,.3-.25.78.78,0,0,0,.1-.43v-7A.87.87,0,0,0,1.21,1,.63.63,0,0,0,.9.72,2.8,2.8,0,0,0,.46.57,1.78,1.78,0,0,0,0,.49V0H4V.49a2.23,2.23,0,0,0-.47.06,2.92,2.92,0,0,0-.42.1.49.49,0,0,0-.31.27,1.16,1.16,0,0,0-.08.42v3H7.31V1.41A.87.87,0,0,0,7.23,1,.67.67,0,0,0,6.92.72,3,3,0,0,0,6.47.57,1.78,1.78,0,0,0,6,.49V0h4V.49a2.4,2.4,0,0,0-.47.06,2.72,2.72,0,0,0-.41.1.47.47,0,0,0-.31.27,1.16,1.16,0,0,0-.08.42v7a1,1,0,0,0,.08.41A.66.66,0,0,0,9.16,9a1.8,1.8,0,0,0,.41.13,2.59,2.59,0,0,0,.47.06Z"/><path class="cls-2" d="M17.9,9.7H11.49V8.77A4.08,4.08,0,0,1,12,8.29c.22-.17.48-.37.78-.57s.4-.26.66-.4.54-.31.87-.48a6.28,6.28,0,0,0,.83-.51,2.48,2.48,0,0,0,.53-.54,1.63,1.63,0,0,0,.25-.53,3,3,0,0,0,.1-.9,1.58,1.58,0,0,0-.46-1.25,1.72,1.72,0,0,0-1.18-.4,2,2,0,0,0-.84.17,1.36,1.36,0,0,0-.59.48c0,.15.07.32.12.52a2.44,2.44,0,0,1,.07.59.6.6,0,0,1-.22.46.86.86,0,0,1-.64.2.61.61,0,0,1-.52-.23,1,1,0,0,1-.19-.63,1.52,1.52,0,0,1,.21-.75,2.46,2.46,0,0,1,.59-.68,2.94,2.94,0,0,1,.93-.5,3.54,3.54,0,0,1,1.19-.19,3.58,3.58,0,0,1,2.23.62,2,2,0,0,1,.82,1.67,2.63,2.63,0,0,1-.15.91,1.77,1.77,0,0,1-.47.72,3.59,3.59,0,0,1-.85.6c-.32.17-.82.4-1.48.69-.4.18-.77.37-1.11.56a5.81,5.81,0,0,0-.84.56H17.9Z"/></g></g></g></g></svg>