<svg xmlns="http://www.w3.org/2000/svg" width="17px" viewBox="0 0 15.79 13.98"><defs><style>.cls-1{fill:#43217b;}</style></defs><g id="Layer_2" data-name="Layer 2"><g id="Layer_1-2" data-name="Layer 1"><g id="numbering"><path id="Path_2165" data-name="Path 2165" class="cls-1" d="M2.06,3.93H1.23V.87A2.88,2.88,0,0,1,1,1.14l-.45.37L.12,1,1.38,0h.68Z"/><path id="Path_2164" data-name="Path 2164" class="cls-1" d="M2.76,8.93H0V8.35l1-1c.29-.3.48-.51.57-.62a1.5,1.5,0,0,0,.19-.32.85.85,0,0,0,.06-.31.45.45,0,0,0-.13-.35.55.55,0,0,0-.35-.12,1.13,1.13,0,0,0-.44.1A2.71,2.71,0,0,0,.45,6L0,5.51a2.68,2.68,0,0,1,.48-.35A1.52,1.52,0,0,1,.9,5a2.07,2.07,0,0,1,.5-.06,1.49,1.49,0,0,1,.65.14,1,1,0,0,1,.43.37A1,1,0,0,1,2.64,6a1.32,1.32,0,0,1-.1.51,1.84,1.84,0,0,1-.3.48,6.71,6.71,0,0,1-.7.71L1,8.19v0H2.76Z"/><path id="Path_2163" data-name="Path 2163" class="cls-1" d="M2.6,10.88a.88.88,0,0,1-.22.62,1.12,1.12,0,0,1-.63.36h0a1.25,1.25,0,0,1,.72.29.81.81,0,0,1,.25.62,1,1,0,0,1-.41.88A1.84,1.84,0,0,1,1.13,14,2.77,2.77,0,0,1,0,13.77v-.71a3,3,0,0,0,.5.19,2.52,2.52,0,0,0,.54.08,1.15,1.15,0,0,0,.61-.14.51.51,0,0,0,.2-.45.41.41,0,0,0-.22-.39,1.79,1.79,0,0,0-.72-.12H.61V11.6h.3a1.52,1.52,0,0,0,.66-.12.43.43,0,0,0,.22-.42c0-.3-.19-.44-.56-.44a1.32,1.32,0,0,0-.39.06,1.88,1.88,0,0,0-.45.22L0,10.33a2.08,2.08,0,0,1,1.28-.39,1.61,1.61,0,0,1,1,.25A.78.78,0,0,1,2.6,10.88Z"/><rect id="Rectangle_1042" data-name="Rectangle 1042" class="cls-1" x="5.79" y="0.93" width="10" height="1"/><rect id="Rectangle_1043" data-name="Rectangle 1043" class="cls-1" x="5.79" y="5.93" width="10" height="1"/><rect id="Rectangle_1044" data-name="Rectangle 1044" class="cls-1" x="5.79" y="10.93" width="10" height="1"/></g></g></g></svg>