<svg xmlns="http://www.w3.org/2000/svg" width="8px" viewBox="0 0 6.62 9.7"><defs><style>.cls-1{isolation:isolate;}</style></defs><g id="Layer_2" data-name="Layer 2"><g id="Layer_1-2" data-name="Layer 1"><g id="italic" class="cls-1"><g class="cls-1"><path class="cls-2" d="M6.62,0,6.51.45,6,.51a3.49,3.49,0,0,0-.51.11A.69.69,0,0,0,5,.89a1.18,1.18,0,0,0-.17.4L3.22,8.38a.36.36,0,0,0,0,.11.45.45,0,0,0,0,.11.5.5,0,0,0,.07.27.65.65,0,0,0,.25.19A2.37,2.37,0,0,0,4,9.17l.52.08-.1.45H0l.1-.45.55,0a2.71,2.71,0,0,0,.51-.08,1,1,0,0,0,.4-.27.87.87,0,0,0,.18-.4l1.64-7.1a.5.5,0,0,0,0-.12.53.53,0,0,0,0-.13A.41.41,0,0,0,3.35.88.54.54,0,0,0,3.11.69a2.53,2.53,0,0,0-.5-.15L2.14.45,2.24,0Z"/></g></g></g></g></svg>