<svg xmlns="http://www.w3.org/2000/svg" width="10px" viewBox="0 0 9.4 8.96"><defs><style>.cls-1{isolation:isolate;}.cls-2{fill:#43217b;}</style></defs><g id="Layer_2" data-name="Layer 2"><g id="Layer_1-2" data-name="Layer 1"><g id="lowercase" class="cls-1"><g class="cls-1"><path class="cls-2" d="M4.57,8.52l-.84.31a3.42,3.42,0,0,1-1,.13,1.47,1.47,0,0,1-1.19-.43,1.89,1.89,0,0,1-.34-1.21V2.75H0V2.1H1.24V0H2.49V2.1H4.42v.65H2.5V6.52a7,7,0,0,0,0,.71,1.23,1.23,0,0,0,.15.49A.67.67,0,0,0,3,8a1.53,1.53,0,0,0,.59.1l.5,0A2.3,2.3,0,0,0,4.57,8Z"/><path class="cls-2" d="M9.4,8.52l-.84.31a3.4,3.4,0,0,1-1,.13A1.44,1.44,0,0,1,6.4,8.53a1.89,1.89,0,0,1-.35-1.21V2.75H4.83V2.1H6.08V0H7.32V2.1H9.26v.65H7.33V6.52a6.68,6.68,0,0,0,0,.71,1.41,1.41,0,0,0,.14.49A.76.76,0,0,0,7.84,8a1.57,1.57,0,0,0,.59.1l.5,0A2.3,2.3,0,0,0,9.4,8Z"/></g></g></g></g></svg>