<svg xmlns="http://www.w3.org/2000/svg" width="14px" viewBox="0 0 13.21 9.84"><defs><style>.cls-1{isolation:isolate;} .cls-2{fill:#43217b;}</style></defs><g id="Layer_2" data-name="Layer 2"><g id="Layer_1-2" data-name="Layer 1"><g id="sentence_case" data-name="sentence case" class="cls-1"><g class="cls-1"><path class="cls-2" d="M8.46,2.63H8a2.88,2.88,0,0,0-.22-.58,4.41,4.41,0,0,0-.36-.64A2.76,2.76,0,0,0,7,.86.85.85,0,0,0,6.48.59L6,.55l-.6,0H5V8.29a1,1,0,0,0,.09.42A.71.71,0,0,0,5.39,9l.51.13a3.76,3.76,0,0,0,.61.08V9.7H1.93V9.21c.13,0,.33,0,.59-.05a2.47,2.47,0,0,0,.54-.1.68.68,0,0,0,.33-.26.83.83,0,0,0,.11-.45V.53H2.58L2,.59a.85.85,0,0,0-.47.27,3.58,3.58,0,0,0-.45.55,3.72,3.72,0,0,0-.36.65,3.37,3.37,0,0,0-.22.57H0V0H8.46Z"/><path class="cls-2" d="M13.21,9.41c-.29.12-.57.22-.84.31a3.33,3.33,0,0,1-1,.12,1.47,1.47,0,0,1-1.19-.42,1.89,1.89,0,0,1-.35-1.21V3.64H8.65V3H9.89V.89h1.25V3h1.93v.65H11.15V7.41a7,7,0,0,0,0,.71,1.23,1.23,0,0,0,.15.49.61.61,0,0,0,.33.3,1.33,1.33,0,0,0,.58.11l.51,0a2.18,2.18,0,0,0,.46-.08Z"/></g></g></g></g></svg>