<svg xmlns="http://www.w3.org/2000/svg" width="22px" viewBox="0 0 21.25 10.94"><defs><style>.cls-1{isolation:isolate;}.cls-2{fill:#43217b;}</style></defs><g id="Layer_2" data-name="Layer 2"><g id="Layer_1-2" data-name="Layer 1"><g id="strikethrough" class="cls-1"><g class="cls-1"><path class="cls-2" d="M6.88,10.46l-.57.19a1.84,1.84,0,0,1-.55.07,1.32,1.32,0,0,1-.85-.25,1.18,1.18,0,0,1-.41-.73h0a3.14,3.14,0,0,1-1,.75,2.6,2.6,0,0,1-1.23.26A1.71,1.71,0,0,1,1,10.29,1.6,1.6,0,0,1,.55,9.07a1.94,1.94,0,0,1,.11-.7A1.69,1.69,0,0,1,1,7.82a1.54,1.54,0,0,1,.46-.36A3.15,3.15,0,0,1,2,7.2l1.25-.43a10.78,10.78,0,0,0,1.27-.49V5.6c0-.06,0-.17,0-.34a1.36,1.36,0,0,0-.16-.48,1.26,1.26,0,0,0-.39-.44,1.1,1.1,0,0,0-.7-.19,1.44,1.44,0,0,0-.59.11,1,1,0,0,0-.38.22,1.58,1.58,0,0,0,.07.4,2.25,2.25,0,0,1,.06.49.59.59,0,0,1-.21.44.89.89,0,0,1-.6.2A.55.55,0,0,1,1,5.77a1,1,0,0,1-.16-.55,1,1,0,0,1,.22-.6,2.36,2.36,0,0,1,.57-.51,3.2,3.2,0,0,1,1.6-.46,5.91,5.91,0,0,1,1,.08,1.72,1.72,0,0,1,.77.34,1.57,1.57,0,0,1,.53.68,3,3,0,0,1,.18,1.12c0,.65,0,1.23,0,1.74s0,1,0,1.65a.84.84,0,0,0,.09.42A1,1,0,0,0,6.1,10a.65.65,0,0,0,.32.06h.46ZM4.49,6.85c-.39.11-.73.23-1,.34a3.43,3.43,0,0,0-.81.41,1.77,1.77,0,0,0-.54.55,1.41,1.41,0,0,0-.2.76,1.07,1.07,0,0,0,.3.83A1.08,1.08,0,0,0,3,10a1.54,1.54,0,0,0,.86-.24,2.56,2.56,0,0,0,.62-.56Z"/><path class="cls-2" d="M14.39,7.21a3.57,3.57,0,0,1-1,2.54,3,3,0,0,1-2.22,1,3.7,3.7,0,0,1-1.09-.17,5.13,5.13,0,0,1-1-.46l-.5.78-.43-.09c0-.34,0-.74.05-1.22s0-.93,0-1.37V1.58a1.14,1.14,0,0,0-.1-.47A.75.75,0,0,0,7.87.78,1.1,1.1,0,0,0,7.43.65L7,.59V.15L9.42,0l.1.1V4.55h0a3,3,0,0,1,.93-.68,2.37,2.37,0,0,1,1-.22,2.64,2.64,0,0,1,2.08,1A3.87,3.87,0,0,1,14.39,7.21ZM13,7.25a5.31,5.31,0,0,0-.11-1,3,3,0,0,0-.34-.92,2.07,2.07,0,0,0-.61-.64,1.63,1.63,0,0,0-.9-.24,1.86,1.86,0,0,0-.84.18,2.4,2.4,0,0,0-.64.51V9a1.42,1.42,0,0,0,.16.38,1.56,1.56,0,0,0,.32.42,1.92,1.92,0,0,0,.47.31,1.48,1.48,0,0,0,.63.12,1.54,1.54,0,0,0,1.35-.81A4.11,4.11,0,0,0,13,7.25Z"/><path class="cls-2" d="M18.5,10.76a2.86,2.86,0,0,1-2.29-1,3.91,3.91,0,0,1-.82-2.61,3.81,3.81,0,0,1,.22-1.32,3.54,3.54,0,0,1,.65-1.13,3.05,3.05,0,0,1,2.33-1.08,2.66,2.66,0,0,1,1.62.47,1.56,1.56,0,0,1,.62,1.3,1.23,1.23,0,0,1-.16.61.6.6,0,0,1-.55.26.88.88,0,0,1-.62-.21.58.58,0,0,1-.22-.45A2.27,2.27,0,0,1,19.36,5c.05-.22.09-.38.1-.48a.65.65,0,0,0-.37-.28,1.77,1.77,0,0,0-.52-.07,1.52,1.52,0,0,0-.63.14,1.6,1.6,0,0,0-.57.52,2.54,2.54,0,0,0-.41.92,5.16,5.16,0,0,0-.16,1.39,3.49,3.49,0,0,0,.57,2.07,1.69,1.69,0,0,0,1.47.8A1.82,1.82,0,0,0,20,9.69a3,3,0,0,0,.83-1l.44.29A3.58,3.58,0,0,1,20,10.29,2.83,2.83,0,0,1,18.5,10.76Z"/><path class="cls-2" d="M0,7.56V6.87H21.25v.69Z"/></g></g></g></g></svg>