<svg xmlns="http://www.w3.org/2000/svg" width="12px" viewBox="0 0 11.16 11.41"><defs><style>.cls-1{isolation:isolate;}.cls-2{fill:#43217b;}</style></defs><g id="Layer_2" data-name="Layer 2"><g id="Layer_1-2" data-name="Layer 1"><g id="superscript" class="cls-1"><g class="cls-1"><path class="cls-2" d="M6.9,6.74H3.81V6.29l.53-.07c.14,0,.22-.08.22-.18a.64.64,0,0,0-.07-.19l-.14-.24c-.11-.18-.27-.41-.47-.71s-.44-.66-.73-1.07c-.23.29-.45.58-.65.86s-.42.58-.64.89l-.09.18a.32.32,0,0,0-.06.16c0,.1.07.18.2.25a1.52,1.52,0,0,0,.59.13v.44H0V6.32A2.38,2.38,0,0,0,.75,6a2.34,2.34,0,0,0,.52-.48l.59-.75c.26-.32.58-.76,1-1.31L2,2.23,1.16,1A1.79,1.79,0,0,0,.76.61,1.12,1.12,0,0,0,.11.45V0H3V.45a3.11,3.11,0,0,0-.43,0Q2.4.51,2.4.6a.43.43,0,0,0,0,.14l.1.16L3,1.62c.21.32.44.67.69,1,.16-.22.34-.48.56-.77s.4-.57.58-.83L4.9.93a.36.36,0,0,0,0-.14c0-.1-.07-.18-.23-.23A2.16,2.16,0,0,0,4.24.44V0H6.73V.42a2.67,2.67,0,0,0-.82.33,1.92,1.92,0,0,0-.5.43l-.54.69L4,3,5,4.46,5.8,5.61a1.87,1.87,0,0,0,.44.48,1.32,1.32,0,0,0,.66.2Z"/></g><g class="cls-1"><path class="cls-2" d="M11.16,11.41H7.42v-.55l.3-.28.46-.33c.11-.07.23-.15.38-.23l.51-.28a2.92,2.92,0,0,0,.48-.3,1.3,1.3,0,0,0,.31-.31A1.12,1.12,0,0,0,10,8.82a1.85,1.85,0,0,0,.05-.53.92.92,0,0,0-.26-.73,1,1,0,0,0-.69-.23,1.19,1.19,0,0,0-.49.1.82.82,0,0,0-.35.28c0,.08.05.19.07.3a1.41,1.41,0,0,1,.05.35.35.35,0,0,1-.13.26.51.51,0,0,1-.37.12.36.36,0,0,1-.31-.13.62.62,0,0,1-.11-.37.91.91,0,0,1,.12-.44,1.6,1.6,0,0,1,.35-.4,1.72,1.72,0,0,1,.54-.29A2.23,2.23,0,0,1,9.18,7a2.1,2.1,0,0,1,1.29.36,1.18,1.18,0,0,1,.48,1,1.51,1.51,0,0,1-.08.53,1.07,1.07,0,0,1-.28.42,2,2,0,0,1-.49.35c-.19.1-.48.23-.87.4-.23.11-.44.21-.64.33a3.09,3.09,0,0,0-.5.33h3.07Z"/></g></g></g></g></svg>