<svg xmlns="http://www.w3.org/2000/svg" width="12px" viewBox="0 0 11.16 9.07"><defs><style>.cls-1{isolation:isolate;}.cls-2{fill:#43217b;}</style></defs><g id="Layer_2" data-name="Layer 2"><g id="Layer_1-2" data-name="Layer 1"><g id="subscript" class="cls-1"><g class="cls-1"><path class="cls-2" d="M6.9,9.07H3.81V8.62a5,5,0,0,0,.53-.07c.14,0,.22-.08.22-.17a.59.59,0,0,0-.07-.2l-.14-.24-.47-.71c-.2-.3-.44-.66-.73-1.07-.23.3-.45.58-.65.86s-.42.58-.64.9a.87.87,0,0,0-.09.17.35.35,0,0,0-.06.16.29.29,0,0,0,.2.25,1.52,1.52,0,0,0,.59.13v.44H0V8.65a2.63,2.63,0,0,0,.75-.33,2.39,2.39,0,0,0,.52-.49l.59-.75c.26-.32.58-.75,1-1.3L2,4.56l-.83-1.2a1.79,1.79,0,0,0-.4-.42,1.2,1.2,0,0,0-.65-.16V2.33H3v.45a3.11,3.11,0,0,0-.43,0q-.21,0-.21.12a.43.43,0,0,0,0,.14l.1.16L3,4c.21.33.44.67.69,1,.16-.22.34-.48.56-.77s.4-.57.58-.83a.67.67,0,0,0,.06-.12.36.36,0,0,0,0-.14c0-.1-.07-.17-.23-.23a2.16,2.16,0,0,0-.45-.12V2.33H6.73v.43a3,3,0,0,0-.82.32,2.13,2.13,0,0,0-.5.43l-.54.7L4,5.35,5,6.79,5.8,7.94a1.87,1.87,0,0,0,.44.48,1.23,1.23,0,0,0,.66.2Z"/></g><g class="cls-1"><path class="cls-2" d="M11.16,4.41H7.42V3.86l.3-.28.46-.33c.11-.07.23-.15.38-.23l.51-.28a2.92,2.92,0,0,0,.48-.3,1.3,1.3,0,0,0,.31-.31A1.12,1.12,0,0,0,10,1.82a1.85,1.85,0,0,0,.05-.53A.92.92,0,0,0,9.8.56,1,1,0,0,0,9.11.33a1.19,1.19,0,0,0-.49.1.82.82,0,0,0-.35.28c0,.08.05.19.07.3a1.41,1.41,0,0,1,.05.35.35.35,0,0,1-.13.26.51.51,0,0,1-.37.12.36.36,0,0,1-.31-.13.62.62,0,0,1-.11-.37A.91.91,0,0,1,7.59.8,1.6,1.6,0,0,1,7.94.4,1.72,1.72,0,0,1,8.48.11,2.23,2.23,0,0,1,9.18,0a2.1,2.1,0,0,1,1.29.36,1.18,1.18,0,0,1,.48,1,1.51,1.51,0,0,1-.08.53,1.07,1.07,0,0,1-.28.42,2,2,0,0,1-.49.35c-.19.1-.48.23-.87.4-.23.11-.44.21-.64.33a3.09,3.09,0,0,0-.5.33h3.07Z"/></g></g></g></g></svg>