<svg xmlns="http://www.w3.org/2000/svg" width="11px" viewBox="0 0 10.59 11.28"><defs><style>.cls-1{isolation:isolate;}.cls-2{fill:#43217b;}</style></defs><g id="Layer_2" data-name="Layer 2"><g id="Layer_1-2" data-name="Layer 1"><g id="underlined" class="cls-1"><g class="cls-1"><path class="cls-2" d="M10.48.49a3.19,3.19,0,0,0-.56.08,1.67,1.67,0,0,0-.6.22A1,1,0,0,0,9,1.44a6.87,6.87,0,0,0-.09,1.21V6.86a2.72,2.72,0,0,1-.34,1.4,2.77,2.77,0,0,1-.88,1,3.47,3.47,0,0,1-1.14.53,4.29,4.29,0,0,1-1.14.16A4.66,4.66,0,0,1,3.85,9.7,3.41,3.41,0,0,1,2.7,9.08,2.58,2.58,0,0,1,2,8.19a2.51,2.51,0,0,1-.23-1V1.41A1,1,0,0,0,1.7,1a.72.72,0,0,0-.32-.3A1.73,1.73,0,0,0,.94.56,2.1,2.1,0,0,0,.51.49V0h4V.49a2.58,2.58,0,0,0-.49.06,2.61,2.61,0,0,0-.42.1.45.45,0,0,0-.31.27,1,1,0,0,0-.08.42V6.69a4.74,4.74,0,0,0,.08.82,2.25,2.25,0,0,0,.34.8,2,2,0,0,0,.73.61,2.7,2.7,0,0,0,1.25.24,3,3,0,0,0,1.27-.24,2.2,2.2,0,0,0,.8-.63,2.08,2.08,0,0,0,.39-.77,2.84,2.84,0,0,0,.12-.81v-4a6,6,0,0,0-.11-1.24A1,1,0,0,0,7.8.86,2.08,2.08,0,0,0,7.15.59a3.48,3.48,0,0,0-.64-.1V0h4Z"/><path class="cls-2" d="M0,11.28v-.69H10.59v.69Z"/></g></g></g></g></svg>