<svg xmlns="http://www.w3.org/2000/svg" width="18px" viewBox="0 0 17.12 9.7"><defs><style>.cls-1{isolation:isolate;}.cls-2{fill:#43217b;}</style></defs><g id="Layer_2" data-name="Layer 2"><g id="Layer_1-2" data-name="Layer 1"><g id="uppercase" class="cls-1"><g class="cls-1"><path class="cls-2" d="M8.46,2.63H8a2.88,2.88,0,0,0-.22-.58,4.41,4.41,0,0,0-.36-.64A2.76,2.76,0,0,0,7,.86.85.85,0,0,0,6.48.59L6,.55l-.6,0H5V8.29a1,1,0,0,0,.09.42A.71.71,0,0,0,5.39,9l.51.13a3.76,3.76,0,0,0,.61.08V9.7H1.93V9.21c.13,0,.33,0,.59-.05a2.47,2.47,0,0,0,.54-.1.68.68,0,0,0,.33-.26.83.83,0,0,0,.11-.45V.53H2.58L2,.59a.85.85,0,0,0-.47.27,3.58,3.58,0,0,0-.45.55,3.72,3.72,0,0,0-.36.65,3.37,3.37,0,0,0-.22.57H0V0H8.46Z"/><path class="cls-2" d="M17.12,2.63h-.47a3.83,3.83,0,0,0-.23-.58,3.63,3.63,0,0,0-.36-.64,2.45,2.45,0,0,0-.45-.55.83.83,0,0,0-.46-.27l-.54,0-.6,0h-.39V8.29a1,1,0,0,0,.09.42.71.71,0,0,0,.34.29l.51.13a3.73,3.73,0,0,0,.62.08V9.7H10.6V9.21c.12,0,.32,0,.58-.05a2.47,2.47,0,0,0,.54-.1.76.76,0,0,0,.34-.26.83.83,0,0,0,.1-.45V.53h-.92l-.6,0a.85.85,0,0,0-.47.27,3.58,3.58,0,0,0-.45.55,3.72,3.72,0,0,0-.36.65,3.37,3.37,0,0,0-.22.57H8.66V0h8.46Z"/></g></g></g></g></svg>