<?xml version="1.0" standalone="no"?>
<!DOCTYPE svg PUBLIC "-//W3C//DTD SVG 20010904//EN"
 "http://www.w3.org/TR/2001/REC-SVG-20010904/DTD/svg10.dtd">
<svg version="1.0" xmlns="http://www.w3.org/2000/svg"
 width="638.000000pt" height="638.000000pt" viewBox="0 0 638.000000 638.000000"
 preserveAspectRatio="xMidYMid meet">
<metadata>
Created by potrace 1.11, written by Peter Selinger 2001-2013
</metadata>
<g transform="translate(0.000000,638.000000) scale(0.100000,-0.100000)"
fill="#000000" stroke="none">
<path d="M1851 5984 c-19 -14 -129 -148 -196 -241 -20 -27 -165 -233 -185
-263 -6 -8 -36 -52 -68 -97 -31 -45 -87 -126 -124 -180 -36 -54 -103 -152
-148 -218 -70 -101 -181 -265 -307 -451 -16 -22 -32 -48 -38 -57 -39 -63 -332
-493 -337 -495 -5 -2 -8 -7 -8 -11 0 -4 -45 -76 -99 -159 -110 -165 -264 -408
-274 -432 -4 -8 -18 -33 -32 -55 -13 -22 -24 -49 -24 -60 -1 -27 20 -85 42
-118 9 -14 17 -29 17 -32 0 -4 15 -30 34 -58 18 -29 55 -88 82 -132 27 -44 52
-84 57 -90 4 -5 37 -55 72 -110 36 -55 70 -107 75 -115 6 -8 123 -183 260
-389 138 -206 250 -378 250 -383 0 -4 5 -8 10 -8 6 0 14 -8 17 -18 6 -14 75
-121 129 -197 8 -11 60 -87 115 -170 232 -343 360 -529 421 -612 21 -29 38
-55 38 -57 0 -3 6 -14 14 -23 8 -10 49 -65 92 -123 103 -141 138 -174 164
-160 11 6 20 21 21 33 0 12 2 31 5 42 7 34 13 340 19 986 l6 616 -38 16 c-124
53 -225 106 -293 156 -219 161 -378 400 -440 661 -37 157 -33 366 11 515 53
183 154 358 283 494 65 67 167 151 185 151 6 0 11 4 11 8 0 8 95 65 110 67 3
0 42 18 87 40 l82 39 1 853 0 853 -38 0 c-21 0 -48 -7 -61 -16z"/>
<path d="M2750 5152 l0 -848 78 -38 c116 -57 229 -137 302 -213 95 -100 160
-182 160 -203 0 -5 4 -10 8 -10 7 0 33 -42 37 -60 0 -3 9 -21 20 -40 11 -19
20 -37 20 -40 1 -3 9 -23 19 -45 21 -49 54 -165 63 -225 13 -86 8 -284 -11
-375 -28 -138 -103 -324 -175 -431 -17 -25 -31 -47 -31 -50 0 -2 -8 -13 -17
-23 -10 -11 -47 -52 -83 -93 -77 -88 -178 -167 -315 -247 l-100 -59 -1 -850 0
-851 25 -7 c49 -12 127 -14 601 -13 638 0 868 3 875 11 4 4 8 159 10 345 7
634 23 1868 24 1898 1 19 9 20 129 22 641 8 1235 18 1566 28 65 1 121 7 125
13 3 6 6 223 6 483 l0 474 -755 1 c-682 2 -937 6 -995 18 -11 3 -28 5 -38 5
-40 2 -48 85 -46 526 1 457 5 735 11 740 4 5 905 12 1771 15 l347 2 0 494 0
494 -1815 0 -1815 0 0 -848z"/>
<path d="M2200 3631 c-89 -28 -141 -60 -205 -125 -124 -125 -176 -296 -140
-456 14 -64 63 -154 112 -206 100 -106 206 -155 347 -159 247 -8 449 141 503
370 13 60 8 179 -11 250 -41 148 -163 262 -341 320 -74 24 -198 27 -265 6z"/>
</g>
</svg>
