<svg id="Layer_2" data-name="Layer 2" xmlns="http://www.w3.org/2000/svg" width="11.84" height="15" viewBox="0 0 11.84 15">
  <g id="Layer_1" data-name="Layer 1" transform="translate(0)">
    <path id="Path_2100" data-name="Path 2100" d="M21.361,14.689v2.249l-5.52,1.009V15.584l5.52-.895m-.469,9.8a1.056,1.056,0,0,1,.34.053l.105.037c-.1.276-.561.408-.671.437a1.421,1.421,0,0,1-.34.042.892.892,0,0,1-.452-.1,1.1,1.1,0,0,1,.669-.423,1.434,1.434,0,0,1,.34-.043m-7.37,1.422a1.008,1.008,0,0,1,.328.051l.1.034a1.069,1.069,0,0,1-.644.4h0a1.228,1.228,0,0,1-.3.037,1.092,1.092,0,0,1-.45-.094,1.07,1.07,0,0,1,.639-.392,1.394,1.394,0,0,1,.337-.043M22.859,12.93l-8.513,1.38h0V24.546a2.488,2.488,0,0,0-.823-.136,2.912,2.912,0,0,0-.7.086,2.041,2.041,0,0,0-1.766,2.223A1.841,1.841,0,0,0,13,27.93a2.733,2.733,0,0,0,.665-.082,2.181,2.181,0,0,0,1.806-1.885h0l.029-6.432,6.236-1.14v4.735a2.544,2.544,0,0,0-.842-.136,2.926,2.926,0,0,0-.7.084A2.063,2.063,0,0,0,18.4,25.32a1.866,1.866,0,0,0,1.929,1.23,2.947,2.947,0,0,0,.7-.087,2.146,2.146,0,0,0,1.824-2V12.93Z" transform="translate(-11.019 -12.93)"/>
  </g>
</svg>
