<svg id="Layer_2" data-name="Layer 2" xmlns="http://www.w3.org/2000/svg" width="15" height="12.869" viewBox="0 0 15 12.869">
  <g id="Layer_1" data-name="Layer 1" transform="translate(0 0)">
    <path id="Path_2103" data-name="Path 2103" d="M75.316,68.809a3.5,3.5,0,1,0,.105.853A3.5,3.5,0,0,0,75.316,68.809Zm-3.395,3.069a2.215,2.215,0,1,1,2.216-2.215A2.215,2.215,0,0,1,71.921,71.878Z" transform="translate(-64.421 -62.295)"/>
    <path id="Path_2104" data-name="Path 2104" d="M14.416,1.868H11.209L10.719.525A.79.79,0,0,0,9.979,0H5.021a.791.791,0,0,0-.743.52l-.49,1.348H.584A.584.584,0,0,0,0,2.452v9.833a.584.584,0,0,0,.584.584H14.416A.584.584,0,0,0,15,12.285V2.452a.584.584,0,0,0-.584-.584Zm-.7,9.427a.292.292,0,0,1-.292.292H1.576a.292.292,0,0,1-.292-.292V3.445a.292.292,0,0,1,.292-.292h2.7a.584.584,0,0,0,.549-.384l.328-.9L5.3,1.479a.292.292,0,0,1,.274-.195H9.429a.292.292,0,0,1,.274.192l.141.392.328.9a.584.584,0,0,0,.548.384h2.7a.292.292,0,0,1,.292.292Z" transform="translate(0 0)"/>
  </g>
</svg>
