<?xml version="1.0" encoding="utf-8"?>
<!-- Generator: Adobe Illustrator 24.1.0, SVG Export Plug-In . SVG Version: 6.00 Build 0)  -->
<svg version="1.1" id="Layer_1" xmlns="http://www.w3.org/2000/svg" height="15px" xmlns:xlink="http://www.w3.org/1999/xlink" x="0px" y="0px"
	 viewBox="0 0 227.6 258.5" style="enable-background:new 0 0 227.6 258.5;" xml:space="preserve">
<g id="Layer_2_1_">
	<g id="Layer_1-2">
		<path d="M217.4,50L193,25.7c-13.7-13.7-35.8-13.7-49.5,0l-26,26c-2.7,2.7-2.7,7.2,0,9.9l5.7,5.7c2.7,2.7,7.2,2.7,9.9,0l26-26
			c5.1-5.1,13.3-5.1,18.4,0l24.3,24.3c5.1,5.1,5.1,13.3,0,18.4l-62.7,62.7c-5.1,5.1-13.3,5.1-18.4,0l-6.9-6.9
			c-2.7-2.7-7.2-2.7-9.9,0l-5.7,5.7c-2.7,2.7-2.7,7.2,0,9.9l6.9,6.9c13.7,13.7,35.8,13.7,49.5,0l62.7-62.7
			C231,85.9,231,63.7,217.4,50z"/>
		<path d="M10.3,208.5l24.3,24.3c13.7,13.7,35.8,13.7,49.5,0l0,0l26-26c2.7-2.7,2.7-7.2,0-9.9l0,0l-5.7-5.7c-2.7-2.7-7.2-2.7-9.9,0
			l0,0l-26,26c-5.1,5.1-13.3,5.1-18.4,0l-24.3-24.3c-5.1-5.1-5.1-13.3,0-18.4l62.7-62.7c5.1-5.1,13.3-5.1,18.4,0l6.9,6.9
			c2.7,2.7,7.2,2.7,9.9,0l5.7-5.7c2.7-2.7,2.7-7.2,0-9.9l-6.9-6.9c-13.7-13.7-35.8-13.7-49.5,0l0,0L10.3,159
			C-3.4,172.6-3.4,194.8,10.3,208.5L10.3,208.5z"/>
	</g>
</g>
</svg>
