<svg id="Layer_2" data-name="Layer 2" xmlns="http://www.w3.org/2000/svg" width="15" height="12.801" viewBox="0 0 15 12.801">
  <g id="Layer_1" data-name="Layer 1">
    <path id="Path_2108" data-name="Path 2108" d="M5.607,88.087a4.04,4.04,0,0,0,4.136.719v4.438H1.277V88.807a4.04,4.04,0,0,0,4.136-.719h.194m4.935-1.277h-.151a2.757,2.757,0,0,1-4.246,0H4.877a2.757,2.757,0,0,1-4.246,0H.481A.481.481,0,0,0,0,87.291v6.75a.481.481,0,0,0,.481.481H10.539a.481.481,0,0,0,.481-.481v-6.75a.481.481,0,0,0-.481-.481Z" transform="translate(0 -81.77)"/>
    <path id="Path_2109" data-name="Path 2109" d="M200.312,87.862v4.082l-.945-.544V88.408l.945-.546m.8-1.858a.478.478,0,0,0-.24.065l-2.778,1.6v4.466l2.778,1.6a.48.48,0,0,0,.721-.416V86.482a.481.481,0,0,0-.481-.482Z" transform="translate(-186.589 -81.007)"/>
    <path id="Path_2110" data-name="Path 2110" d="M2.764,1.277A1.478,1.478,0,1,1,1.287,2.755,1.478,1.478,0,0,1,2.764,1.277M2.764,0A2.755,2.755,0,1,0,5.52,2.755,2.755,2.755,0,0,0,2.764,0Z" transform="translate(-0.009 0)"/>
    <path id="Path_2111" data-name="Path 2111" d="M97.665,1.277a1.478,1.478,0,1,1-1.478,1.478,1.478,1.478,0,0,1,1.478-1.478m0-1.277a2.755,2.755,0,1,0,2.755,2.755A2.755,2.755,0,0,0,97.665,0Z" transform="translate(-89.4 0)"/>
  </g>
</svg>
